<svg width="24" height="24" viewBox="0 0 24 24" fill="none" xmlns="http://www.w3.org/2000/svg">
<path d="M6.3439 4.9384C6.73442 5.32893 6.73442 5.96209 6.3439 6.35261C3.2187 9.47782 3.2187 14.5448 6.3439 17.67C6.73442 18.0605 6.73442 18.6937 6.3439 19.0842C5.95338 19.4747 5.32021 19.4747 4.92969 19.0842C1.02344 15.1779 1.02344 8.84465 4.92969 4.9384C5.32021 4.54788 5.95338 4.54788 6.3439 4.9384ZM19.0755 4.9384C22.9817 8.84465 22.9817 15.1779 19.0755 19.0842C18.6849 19.4747 18.0518 19.4747 17.6613 19.0842C17.2707 18.6937 17.2707 18.0605 17.6613 17.67C20.7865 14.5448 20.7865 9.47782 17.6613 6.35261C17.2707 5.96209 17.2707 5.32893 17.6613 4.9384C18.0518 4.54788 18.6849 4.54788 19.0755 4.9384ZM9.31055 7.81178C9.70107 8.2023 9.70107 8.83547 9.31055 9.22599C7.77959 10.757 7.77959 13.2391 9.31055 14.7701C9.70107 15.1606 9.70107 15.7938 9.31055 16.1843C8.92003 16.5748 8.28686 16.5748 7.89634 16.1843C5.58433 13.8723 5.58433 10.1238 7.89634 7.81178C8.28686 7.42125 8.92003 7.42125 9.31055 7.81178ZM16.2689 7.81178C18.5809 10.1238 18.5809 13.8723 16.2689 16.1843C15.8783 16.5748 15.2452 16.5748 14.8547 16.1843C14.4641 15.7938 14.4641 15.1606 14.8547 14.7701C16.3856 13.2391 16.3856 10.757 14.8547 9.22599C14.4641 8.83547 14.4641 8.2023 14.8547 7.81178C15.2452 7.42125 15.8783 7.42125 16.2689 7.81178ZM12.0826 10.5812C12.911 10.5812 13.5826 11.2528 13.5826 12.0812C13.5826 12.9096 12.911 13.5812 12.0826 13.5812C11.2542 13.5812 10.5826 12.9096 10.5826 12.0812C10.5826 11.2528 11.2542 10.5812 12.0826 10.5812Z" fill="#242424"/>
</svg>
